<svg width="24" height="24" viewBox="0 0 24 24" fill="none" xmlns="http://www.w3.org/2000/svg">
<g clip-path="url(#clip0_1291_10354)">
<path fill-rule="evenodd" clip-rule="evenodd" d="M11.6601 15.3682L16.804 20.5121C17.077 20.7851 17.4472 20.9384 17.8332 20.9384C18.2192 20.9384 18.5894 20.7851 18.8624 20.5121C19.1353 20.2392 19.2887 19.869 19.2887 19.483C19.2887 19.097 19.1353 18.7268 18.8624 18.4538L13.7165 13.3099L18.8614 8.16599C18.9965 8.03084 19.1036 7.8704 19.1767 7.69384C19.2498 7.51728 19.2874 7.32805 19.2873 7.13696C19.2873 6.94587 19.2496 6.75666 19.1764 6.58014C19.1033 6.40361 18.9961 6.24323 18.8609 6.10814C18.7257 5.97305 18.5653 5.8659 18.3887 5.79282C18.2122 5.71973 18.023 5.68214 17.8319 5.68218C17.6408 5.68223 17.4516 5.71991 17.275 5.79308C17.0985 5.86625 16.9381 5.97347 16.803 6.10862L11.6601 11.2525L6.51619 6.10862C6.38204 5.96959 6.22154 5.85867 6.04406 5.78234C5.86658 5.706 5.67568 5.66577 5.48248 5.664C5.28929 5.66223 5.09768 5.69896 4.91883 5.77203C4.73999 5.8451 4.57748 5.95307 4.4408 6.08962C4.30413 6.22616 4.19601 6.38857 4.12277 6.56734C4.04953 6.74612 4.01262 6.9377 4.01421 7.13089C4.0158 7.32409 4.05584 7.51503 4.13201 7.69258C4.20818 7.87013 4.31895 8.03074 4.45785 8.16502L9.6037 13.3099L4.45882 18.4548C4.31992 18.5891 4.20915 18.7497 4.13298 18.9272C4.05681 19.1048 4.01677 19.2957 4.01518 19.4889C4.01359 19.6821 4.0505 19.8737 4.12374 20.0525C4.19698 20.2312 4.3051 20.3936 4.44177 20.5302C4.57845 20.6667 4.74096 20.7747 4.9198 20.8478C5.09865 20.9208 5.29026 20.9576 5.48345 20.9558C5.67665 20.954 5.86755 20.9138 6.04503 20.8375C6.22251 20.7611 6.38301 20.6502 6.51716 20.5112L11.6601 15.3682Z" fill="white"/>
</g>
<defs>
<clipPath id="clip0_1291_10354">
<rect width="23.28" height="23.28" fill="white" transform="translate(0.0200195 0.699951)"/>
</clipPath>
</defs>
</svg>
