<?xml version="1.0" encoding="UTF-8"?>
<!-- Generator: visioncortex VTracer 0.6.3 -->
<svg version="1.1" xmlns="http://www.w3.org/2000/svg" width="200" height="40">
<path d="M0 0 C1.16 0.01 1.16 0.01 2.34 0.01 C3.13 0.01 3.92 0.01 4.73 0.01 C6.41 0.01 8.08 0.01 9.76 0.02 C12.33 0.03 14.89 0.02 17.46 0 C19.09 0.01 20.71 0.01 22.34 0.01 C23.11 0.01 23.88 0 24.67 0 C30.11 0.05 30.11 0.05 32.34 2.28 C32.55 4.98 32.64 7.58 32.64 10.28 C32.64 11.07 32.65 11.86 32.65 12.68 C32.66 14.35 32.66 16.03 32.65 17.7 C32.65 20.27 32.67 22.83 32.7 25.4 C32.7 27.03 32.7 28.65 32.7 30.28 C32.71 31.05 32.72 31.82 32.73 32.61 C32.71 34.78 32.71 34.78 32.34 38.28 C28.68 40.72 25.94 40.57 21.71 40.54 C20.97 40.55 20.22 40.55 19.46 40.55 C17.89 40.55 16.32 40.55 14.75 40.54 C12.34 40.53 9.94 40.54 7.54 40.55 C6.01 40.55 4.49 40.55 2.96 40.54 C1.88 40.55 1.88 40.55 0.78 40.56 C-2.92 40.52 -4.5 40.39 -7.66 38.28 C-7.96 35.54 -8.06 33.02 -8.03 30.28 C-8.03 29.49 -8.03 28.69 -8.03 27.88 C-8.03 26.2 -8.02 24.53 -8 22.86 C-7.98 20.29 -7.98 17.72 -7.99 15.15 C-7.98 13.53 -7.97 11.9 -7.96 10.28 C-7.97 9.51 -7.97 8.74 -7.97 7.94 C-7.88 1.24 -6.7 0.06 0 0 Z " fill="#0F131A" transform="translate(7.6640625,-0.27789306640625)"/>
<path d="M0 0 C1.16 0.01 1.16 0.01 2.34 0.01 C3.13 0.01 3.92 0.01 4.73 0.01 C6.41 0.01 8.08 0.01 9.76 0.02 C12.33 0.03 14.89 0.02 17.46 0 C19.09 0.01 20.71 0.01 22.34 0.01 C23.11 0.01 23.88 0 24.67 0 C30.11 0.05 30.11 0.05 32.34 2.28 C32.55 4.98 32.64 7.58 32.64 10.28 C32.64 11.07 32.65 11.86 32.65 12.68 C32.66 14.35 32.66 16.03 32.65 17.7 C32.65 20.27 32.67 22.83 32.7 25.4 C32.7 27.03 32.7 28.65 32.7 30.28 C32.71 31.05 32.72 31.82 32.73 32.61 C32.71 34.78 32.71 34.78 32.34 38.28 C28.68 40.72 25.94 40.57 21.71 40.54 C20.97 40.55 20.22 40.55 19.46 40.55 C17.89 40.55 16.32 40.55 14.75 40.54 C12.34 40.53 9.94 40.54 7.54 40.55 C6.01 40.55 4.49 40.55 2.96 40.54 C1.88 40.55 1.88 40.55 0.78 40.56 C-2.92 40.52 -4.5 40.39 -7.66 38.28 C-7.96 35.54 -8.06 33.02 -8.03 30.28 C-8.03 29.49 -8.03 28.69 -8.03 27.88 C-8.03 26.2 -8.02 24.53 -8 22.86 C-7.98 20.29 -7.98 17.72 -7.99 15.15 C-7.98 13.53 -7.97 11.9 -7.96 10.28 C-7.97 9.51 -7.97 8.74 -7.97 7.94 C-7.88 1.24 -6.7 0.06 0 0 Z M-6.66 3.28 C-6.91 5.95 -6.91 5.95 -6.79 8.9 C-6.75 10.68 -6.71 12.45 -6.66 14.28 C-0.06 14.28 6.54 14.28 13.34 14.28 C13.34 16.26 13.34 18.24 13.34 20.28 C9.05 20.28 4.76 20.28 0.34 20.28 C0.34 21.6 0.34 22.92 0.34 24.28 C4.3 24.28 8.26 24.28 12.34 24.28 C12.34 26.59 12.34 28.9 12.34 31.28 C8.38 31.28 4.42 31.28 0.34 31.28 C0.34 33.26 0.34 35.24 0.34 37.28 C4.63 37.28 8.92 37.28 13.34 37.28 C13.34 37.94 13.34 38.6 13.34 39.28 C15.96 39.33 18.59 39.37 21.21 39.4 C21.96 39.42 22.7 39.44 23.47 39.45 C25.43 39.47 27.38 39.38 29.34 39.28 C31.82 36.79 31.58 35.32 31.61 31.92 C31.61 31.19 31.61 30.46 31.6 29.72 C31.6 28.97 31.61 28.22 31.61 27.45 C31.61 25.87 31.61 24.29 31.6 22.71 C31.59 20.29 31.6 17.87 31.61 15.44 C31.61 13.91 31.61 12.37 31.6 10.84 C31.61 10.11 31.61 9.39 31.61 8.64 C31.7 4.5 31.7 4.5 29.34 1.28 C26.78 1.08 24.33 1 21.77 1.01 C21.03 1.01 20.28 1.01 19.51 1.01 C17.93 1.01 16.35 1.01 14.77 1.02 C12.35 1.03 9.92 1.02 7.5 1 C5.97 1.01 4.43 1.01 2.9 1.01 C2.17 1.01 1.44 1 0.7 1 C-3.44 0.91 -3.44 0.91 -6.66 3.28 Z " fill="#145CC0" transform="translate(7.6640625,-0.27789306640625)"/>
<path d="M0 0 C3.23 1.21 4.01 2.01 6 5 C6 6.32 6 7.64 6 9 C7.32 9 8.64 9 10 9 C9.67 6.69 9.34 4.38 9 2 C9.99 2.33 10.98 2.66 12 3 C12 4.98 12 6.96 12 9 C12.99 9 13.98 9 15 9 C15.05 11.46 15.09 13.92 15.12 16.38 C15.14 17.07 15.16 17.77 15.18 18.49 C15.19 20.33 15.1 22.17 15 24 C13 26 13 26 9.3 26.2 C7.83 26.18 6.35 26.16 4.88 26.12 C4.12 26.12 3.37 26.11 2.59 26.1 C0.73 26.07 -1.14 26.04 -3 26 C-3 25.34 -3 24.68 -3 24 C-7.29 24 -11.58 24 -16 24 C-16 22.02 -16 20.04 -16 18 C-12.04 18 -8.08 18 -4 18 C-4 15.69 -4 13.38 -4 11 C-7.96 11 -11.92 11 -16 11 C-16 9.68 -16 8.36 -16 7 C-11.38 7 -6.76 7 -2 7 C-2 5.02 -2 3.04 -2 1 C-1.34 0.67 -0.68 0.34 0 0 Z " fill="#0F0F13" transform="translate(24,13)"/>
<path d="M0 0 C1.24 0.02 1.24 0.02 2.5 0.04 C3.32 0.04 4.15 0.05 5 0.06 C5.64 0.07 6.28 0.09 6.93 0.1 C8.04 2.91 9.14 5.72 10.25 8.54 C10.71 9.71 10.71 9.71 11.18 10.91 C13.27 16.26 15.16 21.64 16.93 27.1 C13.96 27.1 10.99 27.1 7.93 27.1 C7.44 24.62 7.44 24.62 6.93 22.1 C5.47 22.16 4.02 22.25 2.56 22.35 C1.75 22.39 0.93 22.44 0.1 22.49 C-2.25 22.89 -2.25 22.89 -3.36 25.14 C-3.59 25.79 -3.82 26.43 -4.07 27.1 C-6.71 27.1 -9.35 27.1 -12.07 27.1 C-10.34 20.79 -8.23 14.66 -5.94 8.54 C-5.68 7.82 -5.41 7.11 -5.14 6.37 C-2.78 0.13 -2.78 0.13 0 0 Z M1.93 9.1 C0.68 12 -0.07 13.89 -0.07 17.1 C1.58 17.1 3.23 17.1 4.93 17.1 C4.27 14.46 3.61 11.82 2.93 9.1 C2.6 9.1 2.27 9.1 1.93 9.1 Z " fill="#4BAEF8" transform="translate(153.06640625,5.90234375)"/>
<path d="M0 0 C5.28 0 10.56 0 16 0 C16 1.65 16 3.3 16 5 C14.68 5 13.36 5 12 5 C12 10.61 12 16.22 12 22 C13.32 22 14.64 22 16 22 C16 23.65 16 25.3 16 27 C10.72 27 5.44 27 0 27 C0 25.35 0 23.7 0 22 C1.32 22 2.64 22 4 22 C4 16.39 4 10.78 4 5 C2.68 5 1.36 5 0 5 C0 3.35 0 1.7 0 0 Z " fill="#1666D5" transform="translate(172,6)"/>
<path d="M0 0 C5.94 0 11.88 0 18 0 C18 1.32 18 2.64 18 4 C14.37 4 10.74 4 7 4 C7 5.65 7 7.3 7 9 C10.3 9 13.6 9 17 9 C17 10.32 17 11.64 17 13 C13.7 13 10.4 13 7 13 C7 15.31 7 17.62 7 20 C10.63 20 14.26 20 18 20 C18 21.32 18 22.64 18 24 C12.06 24 6.12 24 0 24 C0 16.08 0 8.16 0 0 Z " fill="#FFFFFF" transform="translate(49,9)"/>
<path d="M0 0 C1.98 0 3.96 0 6 0 C6 2.64 6 5.28 6 8 C6.66 7.67 7.32 7.34 8 7 C14.25 6.55 14.25 6.55 16.71 8.04 C18.7 11.07 18.31 14.19 18.19 17.69 C18.17 18.74 18.17 18.74 18.15 19.81 C18.11 21.54 18.06 23.27 18 25 C16.02 25 14.04 25 12 25 C11.67 21.37 11.34 17.74 11 14 C9.35 13.67 7.7 13.34 6 13 C6 16.96 6 20.92 6 25 C4.02 25 2.04 25 0 25 C0 16.75 0 8.5 0 0 Z " fill="#FFFFFF" transform="translate(90,8)"/>
<path d="M0 0 C3.58 1.94 4.7 3.06 5.94 6.94 C6.02 11.17 5.2 13.61 2.44 16.81 C-1.34 18.66 -4.88 18.65 -9 18 C-12 16.44 -12 16.44 -14 14 C-15.15 10.05 -15.43 7.97 -13.75 4.19 C-9.86 -0.68 -5.81 -0.82 0 0 Z M-6 4 C-8.37 6.85 -8.37 6.85 -7.62 10.19 C-7.42 11.12 -7.21 12.04 -7 13 C-5.02 13.5 -5.02 13.5 -3 14 C-0.63 11.15 -0.63 11.15 -1.38 7.81 C-1.58 6.88 -1.79 5.96 -2 5 C-3.32 4.67 -4.64 4.34 -6 4 Z " fill="#FFFFFF" transform="translate(126,15)"/>
<path d="M0 0 C0.99 0 1.98 0 3 0 C4.11 2.81 5.21 5.62 6.31 8.44 C6.62 9.22 6.93 10 7.25 10.81 C9.34 16.16 11.22 21.54 13 27 C10.03 27 7.06 27 4 27 C3.67 25.35 3.34 23.7 3 22 C1.02 22 -0.96 22 -3 22 C-3 20.35 -3 18.7 -3 17 C-1.68 17 -0.36 17 1 17 C0.65 16.05 0.3 15.1 -0.06 14.12 C-1.46 9.35 -0.72 4.85 0 0 Z " fill="#3793EB" transform="translate(157,6)"/>
<path d="M0 0 C0.9 -0 1.8 -0.01 2.72 -0.01 C4.94 0.12 4.94 0.12 5.94 1.12 C5.98 2.79 5.98 4.46 5.94 6.12 C4.82 5.94 3.71 5.75 2.56 5.56 C-0.89 4.81 -0.89 4.81 -3.06 6.12 C-3.06 8.11 -3.06 10.09 -3.06 12.12 C0.32 12.97 2.61 13.23 5.94 12.12 C5.98 13.79 5.98 15.46 5.94 17.12 C4.22 18.84 2.03 18.42 -0.31 18.5 C-4.31 18.45 -5.78 18.3 -9.25 16.12 C-11.77 11.96 -11.75 9.95 -11.06 5.12 C-7.77 0.84 -5.25 -0.02 0 0 Z " fill="#FFFFFF" transform="translate(81.0625,14.875)"/>
<path d="M0 0 C1.16 0.01 1.16 0.01 2.34 0.01 C3.13 0.01 3.92 0.01 4.73 0.01 C6.41 0.01 8.08 0.01 9.76 0.02 C12.33 0.03 14.89 0.02 17.46 0 C19.09 0.01 20.71 0.01 22.34 0.01 C23.11 0.01 23.88 0 24.67 0 C30.11 0.05 30.11 0.05 32.34 2.28 C32.55 4.98 32.64 7.58 32.64 10.28 C32.64 11.07 32.65 11.86 32.65 12.68 C32.66 14.35 32.66 16.03 32.65 17.7 C32.65 20.27 32.67 22.83 32.7 25.4 C32.7 27.03 32.7 28.65 32.7 30.28 C32.71 31.05 32.72 31.82 32.73 32.61 C32.71 34.78 32.71 34.78 32.34 38.28 C28.68 40.72 25.94 40.57 21.71 40.54 C20.97 40.55 20.22 40.55 19.46 40.55 C17.89 40.55 16.32 40.55 14.75 40.54 C12.34 40.53 9.94 40.54 7.54 40.55 C6.01 40.55 4.49 40.55 2.96 40.54 C1.88 40.55 1.88 40.55 0.78 40.56 C-2.92 40.52 -4.5 40.39 -7.66 38.28 C-7.96 35.54 -8.06 33.02 -8.03 30.28 C-8.03 29.49 -8.03 28.69 -8.03 27.88 C-8.03 26.2 -8.02 24.53 -8 22.86 C-7.98 20.29 -7.98 17.72 -7.99 15.15 C-7.98 13.53 -7.97 11.9 -7.96 10.28 C-7.97 9.51 -7.97 8.74 -7.97 7.94 C-7.88 1.24 -6.7 0.06 0 0 Z M-6.66 3.28 C-6.84 5.86 -6.9 8.33 -6.86 10.91 C-6.86 11.66 -6.85 12.41 -6.85 13.19 C-6.84 15.59 -6.81 18 -6.79 20.4 C-6.78 22.03 -6.77 23.66 -6.76 25.29 C-6.74 29.29 -6.71 33.28 -6.66 37.28 C2.77 39.25 12.53 39.37 22.15 39.47 C22.84 39.48 23.52 39.49 24.23 39.5 C25.93 39.51 27.64 39.4 29.34 39.28 C31.82 36.79 31.58 35.32 31.61 31.92 C31.61 31.19 31.61 30.46 31.6 29.72 C31.6 28.97 31.61 28.22 31.61 27.45 C31.61 25.87 31.61 24.29 31.6 22.71 C31.59 20.29 31.6 17.87 31.61 15.44 C31.61 13.91 31.61 12.37 31.6 10.84 C31.61 10.11 31.61 9.39 31.61 8.64 C31.7 4.5 31.7 4.5 29.34 1.28 C26.78 1.08 24.33 1 21.77 1.01 C21.03 1.01 20.28 1.01 19.51 1.01 C17.93 1.01 16.35 1.01 14.77 1.02 C12.35 1.03 9.92 1.02 7.5 1 C5.97 1.01 4.43 1.01 2.9 1.01 C2.17 1.01 1.44 1 0.7 1 C-3.44 0.91 -3.44 0.91 -6.66 3.28 Z " fill="#8E949B" transform="translate(7.6640625,-0.27789306640625)"/>
<path d="M0 0 C3.12 -0.06 6.25 -0.09 9.38 -0.12 C10.26 -0.14 11.15 -0.16 12.07 -0.18 C12.92 -0.18 13.77 -0.19 14.65 -0.2 C15.83 -0.21 15.83 -0.21 17.03 -0.23 C19 0 19 0 21 2 C21.23 3.97 21.23 3.97 21.2 6.35 C21.19 7.2 21.18 8.05 21.18 8.93 C21.16 9.82 21.14 10.71 21.12 11.62 C21.12 12.52 21.11 13.42 21.1 14.34 C21.07 16.56 21.04 18.78 21 21 C20.01 21 19.02 21 18 21 C17.77 19.8 17.55 18.61 17.31 17.38 C16.19 13.08 14.62 9.7 11 7 C7.41 5.37 3.77 4.12 0 3 C0 2.01 0 1.02 0 0 Z " fill="#1D86ED" transform="translate(18,1)"/>
<path d="M0 0 C4.29 0 8.58 0 13 0 C13 1.98 13 3.96 13 6 C9.04 6 5.08 6 1 6 C1 7.98 1 9.96 1 12 C5.29 12 9.58 12 14 12 C14 12.33 14 12.66 14 13 C7.73 13 1.46 13 -5 13 C-5.33 12.01 -5.66 11.02 -6 10 C-5.34 9.67 -4.68 9.34 -4 9 C-2.87 6.89 -2.87 6.89 -1.88 4.44 C-0.95 2.24 -0.95 2.24 0 0 Z " fill="#296EB8" transform="translate(7,25)"/>
<path d="M0 0 C0.33 0 0.66 0 1 0 C1.33 7.59 1.66 15.18 2 23 C3.32 23.33 4.64 23.66 6 24 C6.33 22.68 6.66 21.36 7 20 C7 21.32 7 22.64 7 24 C7.83 23.99 8.65 23.98 9.5 23.96 C18.71 23.89 27.82 24.33 37 25 C37 25.33 37 25.66 37 26 C32.21 26.05 27.43 26.09 22.64 26.11 C21.01 26.12 19.38 26.13 17.75 26.15 C15.41 26.18 13.07 26.19 10.73 26.2 C9.64 26.21 9.64 26.21 8.52 26.23 C4.79 26.23 3.19 26.13 0 24 C-0.34 21.57 -0.34 21.57 -0.29 18.55 C-0.28 17.48 -0.27 16.4 -0.26 15.29 C-0.24 14.17 -0.21 13.04 -0.19 11.88 C-0.17 10.74 -0.16 9.6 -0.15 8.43 C-0.11 5.62 -0.06 2.81 0 0 Z " fill="#86B5E2" transform="translate(0,14)"/>
<path d="M0 0 C5.61 0.23 8.34 1.62 12.52 5.33 C15.43 8.61 16 10.56 16 15 C14.68 15 13.36 15 12 15 C11.57 13.91 11.13 12.81 10.69 11.69 C9.47 8.89 8.55 6.79 6 5 C2.9 3.8 2.9 3.8 0 3 C0 2.01 0 1.02 0 0 Z " fill="#1B86E6" transform="translate(18,7)"/>
<path d="M0 0 C1.79 -0.05 3.58 -0.09 5.38 -0.12 C6.37 -0.15 7.37 -0.17 8.4 -0.2 C11 0 11 0 13 2 C13.2 4.6 13.2 4.6 13.12 7.62 C13.11 8.63 13.09 9.63 13.07 10.66 C13.04 11.82 13.04 11.82 13 13 C12.46 12.28 11.93 11.56 11.38 10.81 C8.78 7.74 6.12 5.52 3 3 C1.99 2.01 0.99 1.01 0 0 Z " fill="#0E1116" transform="translate(26,1)"/>
<path d="M0 0 C1.89 0.03 1.89 0.03 3.81 0.06 C3.81 1.71 3.81 3.36 3.81 5.06 C-0.48 5.06 -4.77 5.06 -9.19 5.06 C-8.53 4.73 -7.87 4.4 -7.19 4.06 C-7.19 3.07 -7.19 2.08 -7.19 1.06 C-4.44 0.15 -2.83 -0.05 0 0 Z " fill="#3B98EF" transform="translate(17.1875,13.9375)"/>
<path d="M0 0 C2.97 0 5.94 0 9 0 C9 1.65 9 3.3 9 5 C5.7 5 2.4 5 -1 5 C-0.67 3.35 -0.34 1.7 0 0 Z " fill="#4DB0F7" transform="translate(11,25)"/>
<path d="M0 0 C1.89 0.03 1.89 0.03 3.81 0.06 C3.81 0.39 3.81 0.72 3.81 1.06 C1.5 1.06 -0.81 1.06 -3.19 1.06 C-3.19 2.05 -3.19 3.04 -3.19 4.06 C-5.17 4.39 -7.15 4.72 -9.19 5.06 C-8.53 4.73 -7.87 4.4 -7.19 4.06 C-7.19 3.07 -7.19 2.08 -7.19 1.06 C-4.44 0.15 -2.83 -0.05 0 0 Z " fill="#277CDD" transform="translate(17.1875,13.9375)"/>
<path d="M0 0 C1.32 0 2.64 0 4 0 C4 1.32 4 2.64 4 4 C2.35 4.33 0.7 4.66 -1 5 C-0.67 3.35 -0.34 1.7 0 0 Z " fill="#3C98EF" transform="translate(11,25)"/>
<path d="M0 0 C0.33 0 0.66 0 1 0 C1 2.64 1 5.28 1 8 C0.01 8 -0.98 8 -2 8 C-1.48 5.24 -0.89 2.67 0 0 Z " fill="#0A84D3" transform="translate(38,14)"/>
</svg>
