<?xml version="1.0" encoding="UTF-8"?>
<!-- Generator: visioncortex VTracer 0.6.3 -->
<svg version="1.1" xmlns="http://www.w3.org/2000/svg" width="400" height="400">
<path d="M0 0 C132 0 264 0 400 0 C400 132 400 264 400 400 C268 400 136 400 0 400 C0 268 0 136 0 0 Z " fill="#0F1116" transform="translate(0,0)"/>
<path d="M0 0 C1.98 0.5 1.98 0.5 4 1 C3.01 1.33 2.02 1.66 1 2 C1 2.66 1 3.32 1 4 C3.97 4 6.94 4 10 4 C10.33 3.01 10.66 2.02 11 1 C12.98 0.67 14.96 0.34 17 0 C17 0.66 17 1.32 17 2 C19.31 2 21.62 2 24 2 C24 1.34 24 0.68 24 0 C24.99 0.33 25.98 0.66 27 1 C26.34 1.99 25.68 2.98 25 4 C25 5.32 25 6.64 25 8 C25.99 8 26.98 8 28 8 C28 6.68 28 5.36 28 4 C29.32 4 30.64 4 32 4 C32.25 5.07 32.5 6.15 32.75 7.25 C34.02 11.05 34.87 12.61 38 15 C40.14 15.79 40.14 15.79 42 16 C42 17.32 42 18.64 42 20 C43.65 20 45.3 20 47 20 C47.33 21.32 47.66 22.64 48 24 C48.66 24 49.32 24 50 24 C60.64 43.93 60.64 43.93 60 56 C59.34 56 58.68 56 58 56 C58 57.32 58 58.64 58 60 C58.66 60 59.32 60 60 60 C60 59.34 60 58.68 60 58 C60.66 58 61.32 58 62 58 C62 61.3 62 64.6 62 68 C62.66 67.34 63.32 66.68 64 66 C64.03 68.65 64.05 71.29 64.06 73.94 C64.07 74.69 64.08 75.45 64.09 76.22 C64.1 78.15 64.05 80.08 64 82 C63.67 82.33 63.34 82.66 63 83 C83.3 83.5 83.3 83.5 104 84 C104.66 76.74 105.32 69.48 106 62 C107.32 62 108.64 62 110 62 C110.33 61.01 110.66 60.02 111 59 C112 61 113 63 114 65 C113.34 65 112.68 65 112 65 C112 67.97 112 70.94 112 74 C112.99 74 113.98 74 115 74 C115 75.32 115 76.64 115 78 C115.99 78 116.98 78 118 78 C118 78.66 118 79.32 118 80 C118.66 80 119.32 80 120 80 C120 78.68 120 77.36 120 76 C119.34 76 118.68 76 118 76 C118 75.34 118 74.68 118 74 C118.99 74 119.98 74 121 74 C120.34 69.05 119.68 64.1 119 59 C120.49 58.5 120.49 58.5 122 58 C122 61.63 122 65.26 122 69 C122.66 69 123.32 69 124 69 C123.12 75.75 123.12 75.75 122 78 C123.32 78 124.64 78 126 78 C126 76.68 126 75.36 126 74 C126.66 74 127.32 74 128 74 C128 76.64 128 79.28 128 82 C126.02 82 124.04 82 122 82 C122 83.32 122 84.64 122 86 C123.32 86 124.64 86 126 86 C126 86.66 126 87.32 126 88 C128.64 88 131.28 88 134 88 C134 87.34 134 86.68 134 86 C144.56 86 155.12 86 166 86 C166 145.4 166 204.8 166 266 C103.63 266 41.26 266 -23 266 C-23 257.75 -23 249.5 -23 241 C-67.88 241 -112.76 241 -159 241 C-159 217.24 -159 193.48 -159 169 C-117.42 169 -75.84 169 -33 169 C-33 150.52 -33 132.04 -33 113 C-74.58 113 -116.16 113 -159 113 C-159 96.17 -159 79.34 -159 62 C-114.12 62 -69.24 62 -23 62 C-23 44.18 -23 26.36 -23 8 C-17.85 6.97 -15.06 7.23 -10 8 C-10 7.34 -10 6.68 -10 6 C-13.3 6 -16.6 6 -20 6 C-19.67 4.68 -19.34 3.36 -19 2 C-15.7 2 -12.4 2 -9 2 C-9 2.66 -9 3.32 -9 4 C-4.55 3.5 -4.55 3.5 0 3 C0 2.01 0 1.02 0 0 Z " fill="#101115" transform="translate(234,134)"/>
<path d="M0 0 C69.63 0 139.26 0 211 0 C211 18.48 211 36.96 211 56 C166.12 56 121.24 56 75 56 C75 72.83 75 89.66 75 107 C116.58 107 158.16 107 201 107 C201 125.48 201 143.96 201 163 C159.42 163 117.84 163 75 163 C75 186.76 75 210.52 75 235 C119.88 235 164.76 235 211 235 C211 243.25 211 251.5 211 260 C141.37 260 71.74 260 0 260 C0 174.2 0 88.4 0 0 Z " fill="#1A6BD7" transform="translate(0,140)"/>
<path d="M0 0 C38.61 0 77.22 0 117 0 C117 18.48 117 36.96 117 56 C75.42 56 33.84 56 -9 56 C-9 79.76 -9 103.52 -9 128 C35.88 128 80.76 128 127 128 C127 136.25 127 144.5 127 153 C63.31 153 -0.38 153 -66 153 C-67.1 149.71 -66.8 148.29 -66 145 C-65.34 145 -64.68 145 -64 145 C-64.02 143.87 -64.04 142.73 -64.06 141.56 C-64 138 -64 138 -63 137 C-63.01 134.7 -63.13 132.42 -63.26 130.13 C-63.13 129.08 -63.13 129.08 -63 128 C-61.52 127.01 -61.52 127.01 -60 126 C-60 128.31 -60 130.62 -60 133 C-57.98 131.59 -57.1 130.48 -56.61 128.05 C-56.39 126.04 -56.2 124.02 -56 122 C-55.5 121.5 -55.5 121.5 -55 121 C-54.86 119.85 -54.71 118.69 -54.56 117.5 C-54.38 116.35 -54.19 115.19 -54 114 C-53.01 113.5 -53.01 113.5 -52 113 C-52 113.99 -52 114.98 -52 116 C-51.34 116 -50.68 116 -50 116 C-50 115.01 -50 114.02 -50 113 C-49.34 113 -48.68 113 -48 113 C-48.06 111.72 -48.12 110.44 -48.19 109.12 C-48.29 106.95 -48.29 106.95 -48 105 C-46.52 104.01 -46.52 104.01 -45 103 C-43.79 99.95 -43.79 99.95 -43 97 C-42.34 97 -41.68 97 -41 97 C-40.9 96.28 -40.79 95.56 -40.69 94.81 C-40 92 -40 92 -38.56 89.62 C-37.08 87.14 -36.2 84.93 -35.31 82.19 C-32.33 73.66 -28 65.72 -23.81 57.73 C-22.84 55.79 -22.84 55.79 -22.12 52.69 C-21.23 49.74 -20.52 48.06 -18.94 45.56 C-16.61 41.77 -16.38 38.4 -16 34 C-15.67 33.67 -15.34 33.34 -15 33 C-14.86 31.85 -14.71 30.69 -14.56 29.5 C-14.28 27.77 -14.28 27.77 -14 26 C-13.34 25.67 -12.68 25.34 -12 25 C-12 26.65 -12 28.3 -12 30 C-11.34 30 -10.68 30 -10 30 C-10 28.35 -10 26.7 -10 25 C-9.34 25 -8.68 25 -8 25 C-8.13 24.4 -8.26 23.79 -8.39 23.17 C-8.82 20.71 -9.11 18.5 -9 16 C-6.69 13.62 -6.69 13.62 -4 12 C-3.34 11.01 -2.68 10.02 -2 9 C-1.34 9 -0.68 9 0 9 C0 6.03 0 3.06 0 0 Z " fill="#3893E9" transform="translate(84,247)"/>
<path d="M0 0 C73.26 0 146.52 0 222 0 C222 65.34 222 130.68 222 198 C221.67 198 221.34 198 221 198 C220.88 197.11 220.88 197.11 220.76 196.21 C219.04 183.85 216.69 171.93 213 160 C212.67 158.92 212.34 157.84 211.99 156.73 C210.11 150.83 207.88 145.48 205 140 C204.39 138.49 203.8 136.97 203.25 135.44 C201.17 130.08 198.49 125.11 195.73 120.09 C194.26 117.41 192.97 114.91 192 112 C191.34 112 190.68 112 190 112 C190 110.68 190 109.36 190 108 C189.34 108 188.68 108 188 108 C187.74 107.48 187.49 106.96 187.22 106.42 C183.64 99.53 179.03 93.88 174 88 C173.02 86.84 172.04 85.67 171.07 84.5 C163.02 74.95 154.62 65.99 145 58 C144.07 57.22 143.15 56.45 142.2 55.65 C126.62 42.86 109.6 31.91 91.1 23.91 C89.11 23.05 87.14 22.16 85.17 21.27 C72.52 15.63 59.41 12.22 46 9 C45.18 8.79 44.36 8.59 43.51 8.38 C29.2 4.93 14.63 4.55 0 4 C0 15.22 0 26.44 0 38 C-0.33 38 -0.66 38 -1 38 C-2.37 32.18 -2.19 26.4 -2.19 20.45 C-2.19 18.44 -2.21 16.43 -2.22 14.42 C-2.23 13.14 -2.23 11.87 -2.23 10.56 C-2.23 9.4 -2.24 8.23 -2.24 7.04 C-2 4 -2 4 0 0 Z " fill="#0F1116" transform="translate(178,0)"/>
<path d="M0 0 C22.81 -0.44 45.8 1.41 67.21 9.97 C69.68 10.88 72.11 11.61 74.63 12.32 C80.3 14 85.58 16.32 90.94 18.81 C91.91 19.26 92.87 19.71 93.87 20.17 C111.88 28.53 127.74 39.51 143.38 51.69 C143.96 52.14 144.54 52.59 145.14 53.06 C148.68 55.83 151.86 58.77 155 62 C155.85 62.83 156.7 63.66 157.58 64.51 C163.87 70.67 169.52 77.09 175 84 C176.6 85.94 178.21 87.88 179.81 89.81 C188 99.85 188 99.85 188 104 C188.66 104 189.32 104 190 104 C190 105.32 190 106.64 190 108 C190.66 108 191.32 108 192 108 C201.76 124.81 209.05 141.49 215 160 C215.39 161.18 215.77 162.36 216.17 163.57 C218.22 170.22 219.64 176.89 220.75 183.75 C220.88 184.5 221.01 185.25 221.14 186.02 C222.44 194.81 222 202.84 222 212 C210.12 212 198.24 212 186 212 C185.65 207.92 185.3 203.83 184.94 199.62 C182.34 173.66 174.21 150.83 161.66 128.14 C160.24 125.46 159.05 122.84 158 120 C157.34 120 156.68 120 156 120 C154.86 118.16 153.72 116.32 152.6 114.46 C129.72 79.17 92.16 55.96 53 43 C51.6 42.51 51.6 42.51 50.18 42 C45.1 40.4 39.91 39.64 34.66 38.77 C32.73 38.44 30.8 38.11 28.87 37.77 C19.12 36.13 10 35.59 0 35 C0 23.45 0 11.9 0 0 Z " fill="#1D8BF8" transform="translate(178,4)"/>
<path d="M0 0 C16.81 -0.24 16.81 -0.24 24.81 1.31 C25.52 1.45 26.22 1.58 26.95 1.72 C32.71 2.86 38.38 4.26 44 6 C44.73 6.22 45.46 6.45 46.21 6.68 C48.49 7.41 50.74 8.2 53 9 C53.93 9.31 54.86 9.63 55.82 9.95 C79.05 18.24 99.84 33.47 117 51 C117.66 51.66 118.32 52.32 119 53 C119 53.99 119 54.98 119 56 C119.64 56.27 120.28 56.54 120.94 56.81 C123 58 123 58 124 61 C124.66 61 125.32 61 126 61 C127.61 63.24 129.07 65.46 130.5 67.81 C130.94 68.53 131.38 69.25 131.83 69.99 C147.04 95.09 157 120.24 157 150 C145.12 150 133.24 150 121 150 C120.46 145.85 119.93 141.71 119.38 137.44 C117.87 126.79 115.84 117.67 111 108 C110.35 106.69 109.71 105.38 109.06 104.06 C107.84 101.6 106.59 99.17 105.32 96.73 C104 94 104 94 104 92 C103.34 92 102.68 92 102 92 C101.48 91.03 100.97 90.06 100.44 89.06 C96.33 81.92 91.35 75.99 85.02 70.74 C82.96 68.96 81.16 67.06 79.31 65.06 C74.96 60.59 69.94 57.73 64.56 54.66 C63.29 53.84 63.29 53.84 62 53 C62 52.34 62 51.68 62 51 C60.82 50.63 59.65 50.26 58.44 49.88 C54.81 48.68 51.29 47.31 47.76 45.84 C39.65 42.48 31.55 40.01 23 38 C21.82 37.72 21.82 37.72 20.62 37.43 C16.07 36.69 11.48 36.6 6.89 36.39 C1.1 36.1 1.1 36.1 0 35 C-0.09 32.41 -0.12 29.84 -0.1 27.25 C-0.1 26.08 -0.1 26.08 -0.09 24.9 C-0.09 22.41 -0.08 19.92 -0.06 17.44 C-0.06 15.76 -0.05 14.07 -0.05 12.39 C-0.04 8.26 -0.02 4.13 0 0 Z " fill="#1C8CF9" transform="translate(180,66)"/>
<path d="M0 0 C25.41 0 50.82 0 77 0 C77.99 0.99 78.98 1.98 80 3 C77.36 3 74.72 3 72 3 C71.67 3.66 71.34 4.32 71 5 C70.34 5 69.68 5 69 5 C66.82 8.91 65.1 12.13 64.56 16.62 C63.94 20.39 62.69 21.56 60.13 24.25 C58.22 27.21 58.44 30.39 58.43 33.83 C58.29 34.54 58.15 35.26 58 36 C56.16 37.05 56.16 37.05 54 38 C51.49 40.75 50.5 43.17 49.62 46.75 C48.41 51.1 46.73 54.49 44.18 58.21 C41.49 62.29 40.84 64.95 40.81 69.88 C40.47 75.49 40.47 75.49 38.38 77.73 C37.1 78.61 35.81 79.48 34.52 80.36 C32.29 82.76 32.54 84.66 32.56 87.88 C32.67 89.59 32.81 91.3 33 93 C32.01 93.5 32.01 93.5 31 94 C31 93.34 31 92.68 31 92 C28.96 92.5 28.96 92.5 27 94 C25.96 97.22 25.96 97.22 25.44 100.94 C24.24 108.13 24.24 108.13 21 111 C20.27 114.61 20.27 114.61 20 118 C18.68 118 17.36 118 16 118 C16.06 118.93 16.12 119.86 16.19 120.81 C16 124 16 124 14.62 125.56 C14.09 126.04 13.55 126.51 13 127 C12.33 128.66 11.66 130.33 11 132 C10.34 132.33 9.68 132.66 9 133 C7.64 138.99 8.08 144.85 8.44 150.94 C8.52 152.39 8.52 152.39 8.6 153.88 C8.72 156.25 8.86 158.63 9 161 C8.34 161 7.68 161 7 161 C7 162.98 7 164.96 7 167 C6.34 165.68 5.68 164.36 5 163 C0.91 171.72 1.89 181.6 2 191 C2.99 190.01 2.99 190.01 4 189 C4 189.66 4 190.32 4 191 C4.66 191.33 5.32 191.66 6 192 C5.19 194.94 5.19 194.94 4 198 C3.01 198.33 2.02 198.66 1 199 C1 206.26 1 213.52 1 221 C0.67 221 0.34 221 0 221 C0 148.07 0 75.14 0 0 Z M6 184 C6.66 184 7.32 184 8 184 C8 185.98 8 187.96 8 190 C7.01 190.5 7.01 190.5 6 191 C6 188.69 6 186.38 6 184 Z " fill="#0C58CF" transform="translate(0,140)"/>
<path d="M0 0 C1.07 -0 1.07 -0 2.16 -0 C4.52 0 6.88 0.01 9.24 0.02 C10.87 0.02 12.5 0.02 14.14 0.02 C18.44 0.02 22.75 0.03 27.05 0.04 C32.21 0.06 37.37 0.06 42.54 0.07 C50.38 0.08 58.23 0.1 66.07 0.11 C66.07 18.59 66.07 37.07 66.07 56.11 C36.04 56.11 6.01 56.11 -24.93 56.11 C-25.26 55.45 -25.59 54.79 -25.93 54.11 C-28.96 53.46 -28.96 53.46 -31.93 53.11 C-31.13 45.1 -31.13 45.1 -28.93 41.11 C-28.22 38.2 -27.84 35.35 -27.49 32.36 C-27.31 31.29 -27.12 30.22 -26.93 29.11 C-26.27 28.78 -25.61 28.45 -24.93 28.11 C-24.93 29.76 -24.93 31.41 -24.93 33.11 C-24.27 33.11 -23.61 33.11 -22.93 33.11 C-22.8 32.26 -22.66 31.4 -22.53 30.52 C-22.35 29.42 -22.17 28.31 -21.99 27.18 C-21.82 26.07 -21.64 24.97 -21.46 23.84 C-20.93 21.11 -20.93 21.11 -19.93 20.11 C-19.94 17.82 -20.06 15.54 -20.19 13.24 C-20.1 12.54 -20.02 11.84 -19.93 11.11 C-18.94 10.45 -17.95 9.79 -16.93 9.11 C-16.93 11.42 -16.93 13.73 -16.93 16.11 C-12.89 12.85 -11.61 7.96 -9.87 3.24 C-7.97 -1.06 -4.2 -0.01 0 0 Z " fill="#3690E7" transform="translate(144.92822265625,139.886474609375)"/>
<path d="M0 0 C40.59 0 81.18 0 123 0 C123 8.25 123 16.5 123 25 C79.44 25 35.88 25 -9 25 C-6.76 14.93 -6.76 14.93 -4.5 10.81 C-2.5 7.14 -1.37 4.1 0 0 Z " fill="#53B5F7" transform="translate(88,375)"/>
<path d="M0 0 C5.65 5.65 6.54 15.09 7.75 22.69 C7.88 23.48 8.01 24.28 8.14 25.1 C8.89 30.22 9 34.68 9 40 C20.88 40 32.76 40 45 40 C44.35 34.35 44.35 34.35 43.68 28.69 C43.2 24.44 42.89 20.29 43 16 C45 18 45 18 45.2 19.95 C45.13 21.96 45.07 23.98 45 26 C45.66 26 46.32 26 47 26 C47.03 28.29 47.05 30.58 47.06 32.88 C47.07 34.15 47.09 35.43 47.1 36.74 C47 40 47 40 46 42 C32.47 42 18.94 42 5 42 C4.67 41.34 4.34 40.68 4 40 C4.66 40 5.32 40 6 40 C5.67 35.38 5.34 30.76 5 26 C4.34 26.33 3.68 26.66 3 27 C3.33 23.37 3.66 19.74 4 16 C3.34 16 2.68 16 2 16 C2 16.66 2 17.32 2 18 C1.34 18 0.68 18 0 18 C0 16.68 0 15.36 0 14 C0.66 14 1.32 14 2 14 C1.86 13.32 1.71 12.65 1.56 11.95 C1.38 11.06 1.19 10.17 1 9.25 C0.81 8.37 0.63 7.49 0.44 6.58 C0 4 0 4 0 0 Z " fill="#07223B" transform="translate(292,176)"/>
<path d="M0 0 C2.46 2.46 2.51 3.77 3.07 7.16 C3.24 8.2 3.42 9.24 3.6 10.32 C3.86 11.95 3.86 11.95 4.12 13.62 C4.4 15.23 4.4 15.23 4.68 16.86 C7.11 31.77 7.11 31.77 5 36 C4.01 36 3.02 36 2 36 C2 30.72 2 25.44 2 20 C1.34 20 0.68 20 0 20 C0 22.64 0 25.28 0 28 C-2 26 -2 26 -2.23 23.25 C-2.22 22.18 -2.2 21.1 -2.19 20 C-2.18 18.93 -2.17 17.85 -2.17 16.75 C-2 14 -2 14 -1 12 C-0.77 9.96 -0.59 7.92 -0.44 5.88 C-0.35 4.78 -0.27 3.68 -0.18 2.55 C-0.12 1.71 -0.06 0.87 0 0 Z " fill="#1894E7" transform="translate(394,172)"/>
<path d="M0 0 C2.67 1.99 5.34 3.99 8 6 C8.91 6.68 9.81 7.36 10.75 8.06 C13.22 10.19 15.14 12.32 17 15 C17 15.99 17 16.98 17 18 C17.64 18.29 18.28 18.58 18.94 18.88 C21 20 21 20 22 22 C20.68 22 19.36 22 18 22 C18 21.34 18 20.68 18 20 C15.36 20 12.72 20 10 20 C10.33 18.35 10.66 16.7 11 15 C9.35 14.67 7.7 14.34 6 14 C6 11.36 6 8.72 6 6 C4.35 6 2.7 6 1 6 C0.45 3.92 0 2.16 0 0 Z " fill="#277FD9" transform="translate(282,104)"/>
<path d="M0 0 C2.82 2.82 3.67 6.24 4.94 9.94 C5.2 10.7 5.47 11.47 5.74 12.25 C11 27.6 11 27.6 11 34 C10.34 34 9.68 34 9 34 C8.67 33.34 8.34 32.68 8 32 C7.34 32 6.68 32 6 32 C5.67 30.68 5.34 29.36 5 28 C4.34 28 3.68 28 3 28 C3 26.68 3 25.36 3 24 C3.66 24 4.32 24 5 24 C5 20.7 5 17.4 5 14 C4.34 14 3.68 14 3 14 C3 12.02 3 10.04 3 8 C2.01 8.33 1.02 8.66 0 9 C0 6.03 0 3.06 0 0 Z " fill="#081C2E" transform="translate(349,150)"/>
<path d="M0 0 C0.33 0 0.66 0 1 0 C1.33 11.55 1.66 23.1 2 35 C7.61 35.33 13.22 35.66 19 36 C20.65 36.33 22.3 36.66 24 37 C24 37.33 24 37.66 24 38 C17.07 38 10.14 38 3 38 C3 38.66 3 39.32 3 40 C1.02 40 -0.96 40 -3 40 C-3 39.34 -3 38.68 -3 38 C-1.68 38 -0.36 38 1 38 C0.67 37.34 0.34 36.68 0 36 C-0.09 33.3 -0.12 30.63 -0.1 27.93 C-0.1 26.74 -0.1 26.74 -0.09 25.52 C-0.09 22.97 -0.08 20.42 -0.06 17.88 C-0.06 16.15 -0.05 14.42 -0.05 12.7 C-0.04 8.47 -0.02 4.23 0 0 Z " fill="#0C2243" transform="translate(179,66)"/>
<path d="M0 0 C15.58 2.44 29.45 7.04 44 13 C44 13.33 44 13.66 44 14 C41.69 14 39.38 14 37 14 C37 13.34 37 12.68 37 12 C35.35 12 33.7 12 32 12 C32 11.34 32 10.68 32 10 C29.36 10 26.72 10 24 10 C24 9.34 24 8.68 24 8 C23.34 8 22.68 8 22 8 C22 7.34 22 6.68 22 6 C20.02 6 18.04 6 16 6 C16 5.34 16 4.68 16 4 C12.7 4 9.4 4 6 4 C6 3.34 6 2.68 6 2 C4.02 2 2.04 2 0 2 C0 1.34 0 0.68 0 0 Z " fill="#07214B" transform="translate(211,42)"/>
<path d="M0 0 C2.33 3.1 3.42 4.62 4.57 8.05 C4.83 8.81 5.08 9.57 5.35 10.36 C5.6 11.15 5.86 11.94 6.12 12.75 C6.39 13.52 6.65 14.3 6.93 15.09 C8.57 20.08 9.51 24.77 10 30 C9.34 28.68 8.68 27.36 8 26 C7.34 26 6.68 26 6 26 C6 27.32 6 28.64 6 30 C5.01 30 4.02 30 3 30 C3.33 28.02 3.66 26.04 4 24 C4.66 24 5.32 24 6 24 C6 22.02 6 20.04 6 18 C5.34 18 4.68 18 4 18 C4 15.69 4 13.38 4 11 C2.68 11.33 1.36 11.66 0 12 C0 8.04 0 4.08 0 0 Z " fill="#1E89D7" transform="translate(384,142)"/>
<path d="M0 0 C0.99 0.5 0.99 0.5 2 1 C2 11.89 2 22.78 2 34 C5.3 34 8.6 34 12 34 C12 34.66 12 35.32 12 36 C10.19 36.03 8.38 36.05 6.56 36.06 C5.55 36.07 4.54 36.09 3.5 36.1 C1 36 1 36 0 35 C-0.09 32.41 -0.12 29.84 -0.1 27.25 C-0.1 26.08 -0.1 26.08 -0.09 24.9 C-0.09 22.41 -0.08 19.92 -0.06 17.44 C-0.06 15.76 -0.05 14.07 -0.05 12.39 C-0.04 8.26 -0.02 4.13 0 0 Z " fill="#2B70C3" transform="translate(180,66)"/>
<path d="M0 0 C1.65 0 3.3 0 5 0 C5 1.32 5 2.64 5 4 C4.34 4 3.68 4 3 4 C3 5.32 3 6.64 3 8 C3.99 8.33 4.98 8.66 6 9 C5.01 9.5 5.01 9.5 4 10 C1.23 8.93 -1.43 7.8 -4.12 6.56 C-4.88 6.22 -5.63 5.89 -6.41 5.54 C-8.28 4.7 -10.14 3.85 -12 3 C-12 2.67 -12 2.34 -12 2 C-9.69 2 -7.38 2 -5 2 C-5 2.66 -5 3.32 -5 4 C-4.34 4 -3.68 4 -3 4 C-3 3.34 -3 2.68 -3 2 C-2.01 2 -1.02 2 0 2 C0 1.34 0 0.68 0 0 Z " fill="#0B162C" transform="translate(274,18)"/>
<path d="M0 0 C0.66 0 1.32 0 2 0 C2.99 3.3 3.98 6.6 5 10 C5.66 9.67 6.32 9.34 7 9 C6.67 12.63 6.34 16.26 6 20 C6.66 20 7.32 20 8 20 C8 25.28 8 30.56 8 36 C7.67 36 7.34 36 7 36 C6.89 35.34 6.79 34.67 6.68 33.99 C4.04 16.85 4.04 16.85 0 0 Z " fill="#04203A" transform="translate(392,162)"/>
<path d="M0 0 C1.65 0 3.3 0 5 0 C5 0.66 5 1.32 5 2 C5.66 2 6.32 2 7 2 C7 2.66 7 3.32 7 4 C8.32 4 9.64 4 11 4 C10.67 2.68 10.34 1.36 10 0 C11.32 0 12.64 0 14 0 C13.98 0.76 13.96 1.53 13.94 2.31 C13.87 5.1 13.87 5.1 15 8 C17.02 8.73 17.02 8.73 19 9 C18.01 10.48 18.01 10.48 17 12 C14.73 10.57 12.46 9.13 10.19 7.69 C9.54 7.28 8.9 6.88 8.24 6.46 C7.62 6.07 7 5.67 6.36 5.26 C5.78 4.9 5.21 4.54 4.63 4.17 C2.89 2.92 1.47 1.54 0 0 Z " fill="#091A33" transform="translate(254,84)"/>
<path d="M0 0 C5.25 0.87 8.28 2.28 12 6 C13.66 7.01 15.33 8.01 17 9 C17 9.33 17 9.66 17 10 C12.46 10.25 12.46 10.25 10.19 9 C6.8 7.45 3.7 7.88 0 8 C0 7.34 0 6.68 0 6 C1.32 5.34 2.64 4.68 4 4 C4 3.34 4 2.68 4 2 C2.68 2 1.36 2 0 2 C0 1.34 0 0.68 0 0 Z " fill="#0D1F3A" transform="translate(233,114)"/>
<path d="M0 0 C1.92 -0.05 3.83 -0.09 5.75 -0.12 C7.35 -0.16 7.35 -0.16 8.98 -0.2 C11.92 -0 13.52 0.47 16 2 C16 2.66 16 3.32 16 4 C16.99 4 17.98 4 19 4 C19 4.66 19 5.32 19 6 C19.99 6 20.98 6 22 6 C22 6.66 22 7.32 22 8 C20.78 7.59 19.57 7.18 18.31 6.75 C12.24 4.72 6.12 2.86 0 1 C0 0.67 0 0.34 0 0 Z " fill="#082043" transform="translate(240,12)"/>
<path d="M0 0 C5.37 6.44 7.84 14.02 10 22 C9.34 22.66 8.68 23.32 8 24 C7.67 22.02 7.34 20.04 7 18 C6.01 17.67 5.02 17.34 4 17 C3.67 14.03 3.34 11.06 3 8 C2.34 8 1.68 8 1 8 C0.67 5.36 0.34 2.72 0 0 Z " fill="#2885D6" transform="translate(319,150)"/>
<path d="M0 0 C2.31 0 4.62 0 7 0 C7 0.66 7 1.32 7 2 C7.66 2 8.32 2 9 2 C9 1.34 9 0.68 9 0 C10.32 0 11.64 0 13 0 C13 1.98 13 3.96 13 6 C13.66 6 14.32 6 15 6 C15 6.66 15 7.32 15 8 C15.99 8 16.98 8 18 8 C18 8.66 18 9.32 18 10 C15.06 9.19 15.06 9.19 12 8 C11.67 7.01 11.34 6.02 11 5 C8.97 4.05 8.97 4.05 6.56 3.44 C2.2 2.2 2.2 2.2 0 0 Z " fill="#297FDB" transform="translate(231,112)"/>
<path d="M0 0 C0 0.33 0 0.66 0 1 C-1.98 1 -3.96 1 -6 1 C-6 0.34 -6 -0.32 -6 -1 C-10.95 -1 -15.9 -1 -21 -1 C-21 -1.66 -21 -2.32 -21 -3 C-12.89 -6.28 -7.46 -3.56 0 0 Z " fill="#081A35" transform="translate(233,113)"/>
<path d="M0 0 C10 -0.52 19.25 1.06 29 3 C29 3.33 29 3.66 29 4 C24.71 4 20.42 4 16 4 C16 3.34 16 2.68 16 2 C14.77 2.03 14.77 2.03 13.52 2.07 C11.9 2.1 11.9 2.1 10.25 2.12 C8.65 2.16 8.65 2.16 7.02 2.2 C4.08 2 2.48 1.53 0 0 Z " fill="#2B6EC6" transform="translate(184,66)"/>
<path d="M0 0 C2.76 3.41 4.77 7.11 6.75 11 C7.08 11.62 7.41 12.23 7.75 12.87 C10.07 17.43 10.07 17.43 9.7 20.44 C9.36 21.21 9.36 21.21 9 22 C8.75 21.05 8.5 20.1 8.25 19.12 C7.31 15.91 7.31 15.91 4.88 14.62 C4.26 14.42 3.64 14.21 3 14 C3.33 12.68 3.66 11.36 4 10 C3.34 10 2.68 10 2 10 C0.68 6.38 0 3.9 0 0 Z " fill="#237CC6" transform="translate(373,118)"/>
<path d="M0 0 C10.25 -0.22 19.9 0.03 30 2 C30 2.33 30 2.66 30 3 C24.06 3 18.12 3 12 3 C12 2.34 12 1.68 12 1 C8.04 1 4.08 1 0 1 C0 0.67 0 0.34 0 0 Z " fill="#07285A" transform="translate(178,39)"/>
<path d="M0 0 C1.32 0 2.64 0 4 0 C3.67 1.98 3.34 3.96 3 6 C5.31 6 7.62 6 10 6 C6.43 8.3 4.1 8.01 0 7.25 C-1.03 7.07 -2.06 6.89 -3.12 6.7 C-6 6 -6 6 -10 4 C-6.37 4 -2.74 4 1 4 C0.67 2.68 0.34 1.36 0 0 Z " fill="#091B3A" transform="translate(234,4)"/>
<path d="M0 0 C3.28 3.1 5.93 5.97 8 10 C8 10.66 8 11.32 8 12 C8.66 12 9.32 12 10 12 C10 12.66 10 13.32 10 14 C9.34 14 8.68 14 8 14 C7.67 14.66 7.34 15.32 7 16 C6.71 15.03 6.42 14.06 6.12 13.06 C5.36 9.89 5.36 9.89 3 9 C3 8.01 3 7.02 3 6 C1.68 6 0.36 6 -1 6 C-0.67 4.02 -0.34 2.04 0 0 Z " fill="#07213F" transform="translate(326,112)"/>
<path d="M0 0 C5.94 0 11.88 0 18 0 C18 0.66 18 1.32 18 2 C19.98 2 21.96 2 24 2 C24 2.66 24 3.32 24 4 C20.75 3.72 17.5 3.42 14.25 3.12 C13.33 3.05 12.41 2.97 11.46 2.89 C10.57 2.8 9.68 2.72 8.77 2.63 C7.95 2.56 7.13 2.49 6.29 2.41 C4 2 4 2 0 0 Z " fill="#0A214D" transform="translate(200,4)"/>
<path d="M0 0 C2.32 3.09 3.99 5.72 5.69 9.12 C6.12 9.99 6.56 10.86 7.01 11.76 C8 14 8 14 8 16 C7.01 16 6.02 16 5 16 C4.67 14.02 4.34 12.04 4 10 C2.35 10 0.7 10 -1 10 C-0.67 6.7 -0.34 3.4 0 0 Z " fill="#09243F" transform="translate(341,134)"/>
<path d="M0 0 C5.19 -0.21 9.13 0.41 14 2 C14 2.66 14 3.32 14 4 C15.65 4 17.3 4 19 4 C19 4.66 19 5.32 19 6 C20.32 6 21.64 6 23 6 C23 6.66 23 7.32 23 8 C15.32 5.71 7.66 3.36 0 1 C0 0.67 0 0.34 0 0 Z " fill="#2F74C1" transform="translate(208,104)"/>
<path d="M0 0 C2.97 0.33 5.94 0.66 9 1 C8.98 1.91 8.96 2.81 8.94 3.75 C8.99 6.43 9.22 8.47 10 11 C6.4 7.51 3.17 3.89 0 0 Z " fill="#2481DA" transform="translate(268,139)"/>
<path d="M0 0 C3.13 3.13 3.05 5.97 3.06 10.25 C3.04 11.49 3.02 12.72 3 14 C2.01 14 1.02 14 0 14 C0 9.38 0 4.76 0 0 Z " fill="#1F7FC1" transform="translate(394,172)"/>
<path d="M0 0 C2.64 2.4 4.36 5.01 6.19 8.06 C6.72 8.94 7.25 9.82 7.79 10.72 C9 13 9 13 9 15 C8.01 15 7.02 15 6 15 C6 13.68 6 12.36 6 11 C5.34 11 4.68 11 4 11 C4 9.68 4 8.36 4 7 C3.34 7 2.68 7 2 7 C0 4 0 4 0 0 Z " fill="#287EC8" transform="translate(310,135)"/>
<path d="M0 0 C5.79 1.37 11.38 3.05 17 5 C17 5.33 17 5.66 17 6 C14.03 6 11.06 6 8 6 C8 5.34 8 4.68 8 4 C7.01 4 6.02 4 5 4 C5 3.34 5 2.68 5 2 C3.35 1.67 1.7 1.34 0 1 C0 0.67 0 0.34 0 0 Z " fill="#2D76CD" transform="translate(216,70)"/>
<path d="M0 0 C6.9 -0.44 12.02 0.34 18 4 C18.33 4.66 18.66 5.32 19 6 C16.39 5.38 13.79 4.76 11.19 4.12 C10.45 3.95 9.71 3.78 8.95 3.6 C5.5 2.76 2.98 1.99 0 0 Z " fill="#082249" transform="translate(210,68)"/>
<path d="M0 0 C1.32 0 2.64 0 4 0 C4 0.66 4 1.32 4 2 C4.99 2 5.98 2 7 2 C7 2.66 7 3.32 7 4 C7.66 4 8.32 4 9 4 C9 4.66 9 5.32 9 6 C9.99 6.33 10.98 6.66 12 7 C11.67 7.99 11.34 8.98 11 10 C10.67 9.34 10.34 8.68 10 8 C9.44 7.73 8.89 7.46 8.31 7.19 C5.1 5.54 2.7 3.39 0 1 C0 0.67 0 0.34 0 0 Z " fill="#051C3B" transform="translate(285,106)"/>
<path d="M0 0 C2.22 2.22 3 3.99 4.19 6.88 C4.55 7.74 4.92 8.6 5.29 9.49 C6.05 12.17 5.94 13.43 5 16 C5 15.34 5 14.68 5 14 C4.34 14 3.68 14 3 14 C3 12.02 3 10.04 3 8 C2.01 8.33 1.02 8.66 0 9 C0 6.03 0 3.06 0 0 Z " fill="#062E55" transform="translate(349,150)"/>
<path d="M0 0 C4.67 2.13 8.59 4.03 12 8 C10.68 8 9.36 8 8 8 C8 7.34 8 6.68 8 6 C7.24 5.9 6.47 5.79 5.69 5.69 C2.82 4.95 1.77 4.33 0 2 C0 1.34 0 0.68 0 0 Z " fill="#071E40" transform="translate(271,64)"/>
<path d="M0 0 C0 0.66 0 1.32 0 2 C-0.66 2 -1.32 2 -2 2 C-2 2.99 -2 3.98 -2 5 C-1.01 5.33 -0.02 5.66 1 6 C0.01 6.49 0.01 6.49 -1 7 C-2.95 6.04 -2.95 6.04 -5.12 4.62 C-6.21 3.93 -6.21 3.93 -7.32 3.23 C-7.87 2.82 -8.43 2.42 -9 2 C-9 1.67 -9 1.34 -9 1 C-2.25 0 -2.25 0 0 0 Z " fill="#0D213F" transform="translate(303,35)"/>
<path d="M0 0 C1.32 0 2.64 0 4 0 C6.28 8.04 6.28 8.04 5 12 C4.16 10.38 3.33 8.75 2.5 7.12 C2.04 6.22 1.57 5.32 1.09 4.38 C0 2 0 2 0 0 Z " fill="#2789DA" transform="translate(344,138)"/>
<path d="M0 0 C1.65 0 3.3 0 5 0 C5 0.66 5 1.32 5 2 C5.99 2 6.98 2 8 2 C8 2.66 8 3.32 8 4 C8.66 4 9.32 4 10 4 C10.33 5.32 10.66 6.64 11 8 C9.16 6.86 7.33 5.71 5.5 4.56 C4.48 3.92 3.46 3.29 2.41 2.63 C1.61 2.09 0.82 1.55 0 1 C0 0.67 0 0.34 0 0 Z " fill="#08254C" transform="translate(303,42)"/>
<path d="M0 0 C3.82 1.56 6.19 4.04 9 7 C8.01 7.49 8.01 7.49 7 8 C7 7.34 7 6.68 7 6 C6.01 6 5.02 6 4 6 C4 5.34 4 4.68 4 4 C2.02 4 0.04 4 -2 4 C-2 3.34 -2 2.68 -2 2 C-1.34 2 -0.68 2 0 2 C0 1.34 0 0.68 0 0 Z " fill="#2780DA" transform="translate(320,56)"/>
<path d="M0 0 C4.97 0.51 9.29 1.23 14 3 C14 3.33 14 3.66 14 4 C11.03 4 8.06 4 5 4 C4.67 4.66 4.34 5.32 4 6 C3.9 5.38 3.79 4.76 3.69 4.12 C3.12 1.63 3.12 1.63 0 0 Z " fill="#2B71CB" transform="translate(229,10)"/>
<path d="M0 0 C0.99 0 1.98 0 3 0 C3.33 5.28 3.66 10.56 4 16 C2.14 12.29 1.49 9.78 0.88 5.75 C0.71 4.67 0.54 3.59 0.37 2.48 C0.25 1.66 0.12 0.84 0 0 Z " fill="#052548" transform="translate(331,176)"/>
<path d="M0 0 C1.65 0 3.3 0 5 0 C5 0.66 5 1.32 5 2 C5.66 2 6.32 2 7 2 C7 2.66 7 3.32 7 4 C8.32 4 9.64 4 11 4 C11.33 5.32 11.66 6.64 12 8 C10 6.86 8 5.71 6 4.56 C4.89 3.92 3.77 3.29 2.62 2.63 C1.76 2.09 0.89 1.55 0 1 C0 0.67 0 0.34 0 0 Z " fill="#092B58" transform="translate(254,84)"/>
<path d="M0 0 C1.67 1.67 3.33 3.33 5 5 C5.9 5.84 5.9 5.84 6.81 6.69 C8 8 8 8 8 10 C6.68 10 5.36 10 4 10 C3.67 8.02 3.34 6.04 3 4 C2.01 3.67 1.02 3.34 0 3 C0 2.01 0 1.02 0 0 Z " fill="#072546" transform="translate(272,144)"/>
<path d="M0 0 C0.7 0.14 1.4 0.29 2.12 0.44 C5.08 1.01 8.03 1.52 11 2 C11 3.32 11 4.64 11 6 C7.21 4.55 3.61 2.85 0 1 C0 0.67 0 0.34 0 0 Z " fill="#2C76CC" transform="translate(261,58)"/>
<path d="M0 0 C3.91 1.27 5.79 2.51 8 6 C6.02 6 4.04 6 2 6 C2 4.68 2 3.36 2 2 C1.34 2 0.68 2 0 2 C0 1.34 0 0.68 0 0 Z " fill="#2D80D8" transform="translate(307,46)"/>
<path d="M0 0 C5.88 4.62 5.88 4.62 7 8 C5.02 7.34 3.04 6.68 1 6 C0.67 4.02 0.34 2.04 0 0 Z " fill="#2782CD" transform="translate(345,80)"/>
<path d="M0 0 C2.97 0.99 5.94 1.98 9 3 C5.69 3.83 3.34 4.09 0 4 C0 2.68 0 1.36 0 0 Z " fill="#317CD9" transform="translate(234,76)"/>
<path d="M0 0 C2.25 2.69 3.88 4.65 5 8 C4.01 8 3.02 8 2 8 C-0.15 4.77 -0.2 3.72 0 0 Z " fill="#05294E" transform="translate(336,126)"/>
<path d="M0 0 C1.65 0 3.3 0 5 0 C5.33 1.65 5.66 3.3 6 5 C5.01 5.33 4.02 5.66 3 6 C2.01 4.02 1.02 2.04 0 0 Z " fill="#061D3E" transform="translate(296,116)"/>
<path d="M0 0 C1.32 0 2.64 0 4 0 C4 0.66 4 1.32 4 2 C4.99 2 5.98 2 7 2 C6.67 3.32 6.34 4.64 6 6 C3.98 4.36 1.98 2.69 0 1 C0 0.67 0 0.34 0 0 Z " fill="#0A2652" transform="translate(278,100)"/>
<path d="M0 0 C5.88 3.75 5.88 3.75 7 6 C5.35 6 3.7 6 2 6 C1.34 4.02 0.68 2.04 0 0 Z " fill="#072040" transform="translate(299,84)"/>
<path d="M0 0 C5.88 3.75 5.88 3.75 7 6 C4.03 5.5 4.03 5.5 1 5 C0.67 3.35 0.34 1.7 0 0 Z " fill="#082146" transform="translate(292,78)"/>
<path d="M0 0 C2 1.81 2 1.81 4 4 C4 4.99 4 5.98 4 7 C4.66 7 5.32 7 6 7 C5.67 7.66 5.34 8.32 5 9 C4.34 9 3.68 9 3 9 C3 7.68 3 6.36 3 5 C2.01 4.67 1.02 4.34 0 4 C0 2.68 0 1.36 0 0 Z " fill="#2777BD" transform="translate(362,101)"/>
<path d="M0 0 C5.88 3.75 5.88 3.75 7 6 C5.68 6 4.36 6 3 6 C3 5.34 3 4.68 3 4 C2.01 3.67 1.02 3.34 0 3 C0 2.01 0 1.02 0 0 Z " fill="#2F7DCD" transform="translate(272,96)"/>
<path d="M0 0 C2.31 0 4.62 0 7 0 C7 0.66 7 1.32 7 2 C7.66 2 8.32 2 9 2 C9 2.66 9 3.32 9 4 C6.03 3.01 3.06 2.02 0 1 C0 0.67 0 0.34 0 0 Z " fill="#0B2659" transform="translate(262,20)"/>
<path d="M0 0 C2.57 2.57 2.54 4.48 3 8 C2.01 8 1.02 8 0 8 C0 5.36 0 2.72 0 0 Z " fill="#0A3458" transform="translate(295,184)"/>
</svg>
