<?xml version="1.0" encoding="UTF-8"?>
<!-- Generator: visioncortex VTracer 0.6.3 -->
<svg version="1.1" xmlns="http://www.w3.org/2000/svg" width="40" height="40">
<path d="M0 0 C13.2 0 26.4 0 40 0 C40 13.2 40 26.4 40 40 C26.8 40 13.6 40 0 40 C0 26.8 0 13.6 0 0 Z " fill="#0F131A" transform="translate(0,0)"/>
<path d="M0 0 C13.2 0 26.4 0 40 0 C40 13.2 40 26.4 40 40 C26.8 40 13.6 40 0 40 C0 26.8 0 13.6 0 0 Z M1 3 C0.76 5.67 0.76 5.67 0.88 8.62 C0.92 10.4 0.96 12.17 1 14 C7.6 14 14.2 14 21 14 C21 15.98 21 17.96 21 20 C16.71 20 12.42 20 8 20 C8 21.32 8 22.64 8 24 C11.96 24 15.92 24 20 24 C20 26.31 20 28.62 20 31 C16.04 31 12.08 31 8 31 C8 32.98 8 34.96 8 37 C12.29 37 16.58 37 21 37 C21 37.66 21 38.32 21 39 C23.63 39.05 26.25 39.09 28.88 39.12 C29.62 39.14 30.37 39.16 31.14 39.18 C33.09 39.19 35.05 39.1 37 39 C39.49 36.51 39.25 35.04 39.28 31.64 C39.27 30.91 39.27 30.19 39.27 29.44 C39.27 28.69 39.27 27.94 39.27 27.17 C39.27 25.59 39.27 24.01 39.26 22.43 C39.25 20.01 39.26 17.59 39.27 15.16 C39.27 13.63 39.27 12.1 39.27 10.56 C39.27 9.84 39.27 9.11 39.28 8.36 C39.37 4.23 39.37 4.23 37 1 C34.44 0.8 32 0.72 29.44 0.73 C28.69 0.73 27.94 0.73 27.17 0.73 C25.59 0.73 24.01 0.73 22.43 0.74 C20.01 0.75 17.59 0.74 15.16 0.73 C13.63 0.73 12.1 0.73 10.56 0.73 C9.84 0.73 9.11 0.73 8.36 0.72 C4.23 0.63 4.23 0.63 1 3 Z " fill="#145CC0" transform="translate(0,0)"/>
<path d="M0 0 C3.23 1.21 4.01 2.01 6 5 C6 6.32 6 7.64 6 9 C7.32 9 8.64 9 10 9 C9.67 6.69 9.34 4.38 9 2 C9.99 2.33 10.98 2.66 12 3 C12 4.98 12 6.96 12 9 C12.99 9 13.98 9 15 9 C15.05 11.46 15.09 13.92 15.12 16.38 C15.14 17.07 15.16 17.77 15.18 18.49 C15.19 20.33 15.1 22.17 15 24 C13 26 13 26 9.3 26.2 C7.83 26.18 6.35 26.16 4.88 26.12 C4.12 26.12 3.37 26.11 2.59 26.1 C0.73 26.07 -1.14 26.04 -3 26 C-3 25.34 -3 24.68 -3 24 C-7.29 24 -11.58 24 -16 24 C-16 22.02 -16 20.04 -16 18 C-12.04 18 -8.08 18 -4 18 C-4 15.69 -4 13.38 -4 11 C-7.96 11 -11.92 11 -16 11 C-16 9.68 -16 8.36 -16 7 C-11.38 7 -6.76 7 -2 7 C-2 5.02 -2 3.04 -2 1 C-1.34 0.67 -0.68 0.34 0 0 Z " fill="#0F0F13" transform="translate(24,13)"/>
<path d="M0 0 C3.12 -0.06 6.25 -0.09 9.38 -0.12 C10.26 -0.14 11.15 -0.16 12.07 -0.18 C12.92 -0.18 13.77 -0.19 14.65 -0.2 C15.83 -0.21 15.83 -0.21 17.03 -0.23 C19 0 19 0 21 2 C21.23 3.97 21.23 3.97 21.2 6.35 C21.19 7.2 21.18 8.05 21.18 8.93 C21.16 9.82 21.14 10.71 21.12 11.62 C21.12 12.52 21.11 13.42 21.1 14.34 C21.07 16.56 21.04 18.78 21 21 C20.01 21 19.02 21 18 21 C17.77 19.8 17.55 18.61 17.31 17.38 C16.19 13.08 14.62 9.7 11 7 C7.41 5.37 3.77 4.12 0 3 C0 2.01 0 1.02 0 0 Z " fill="#1D86ED" transform="translate(18,1)"/>
<path d="M0 0 C13.2 0 26.4 0 40 0 C40 13.2 40 26.4 40 40 C26.8 40 13.6 40 0 40 C0 26.8 0 13.6 0 0 Z M1 3 C0.8 5.56 0.72 8 0.73 10.56 C0.73 11.31 0.73 12.06 0.73 12.83 C0.73 14.41 0.73 15.99 0.74 17.57 C0.75 19.99 0.74 22.41 0.73 24.84 C0.73 26.37 0.73 27.9 0.73 29.44 C0.73 30.16 0.73 30.89 0.72 31.64 C0.63 35.77 0.63 35.77 3 39 C5.56 39.2 8 39.28 10.56 39.27 C11.68 39.27 11.68 39.27 12.83 39.27 C14.41 39.27 15.99 39.27 17.57 39.26 C19.99 39.25 22.41 39.26 24.84 39.27 C26.37 39.27 27.9 39.27 29.44 39.27 C30.16 39.27 30.89 39.27 31.64 39.28 C35.77 39.37 35.77 39.37 39 37 C39.2 34.44 39.28 32 39.27 29.44 C39.27 28.69 39.27 27.94 39.27 27.17 C39.27 25.59 39.27 24.01 39.26 22.43 C39.25 20.01 39.26 17.59 39.27 15.16 C39.27 13.63 39.27 12.1 39.27 10.56 C39.27 9.84 39.27 9.11 39.28 8.36 C39.37 4.23 39.37 4.23 37 1 C34.44 0.8 32 0.72 29.44 0.73 C28.69 0.73 27.94 0.73 27.17 0.73 C25.59 0.73 24.01 0.73 22.43 0.74 C20.01 0.75 17.59 0.74 15.16 0.73 C13.63 0.73 12.1 0.73 10.56 0.73 C9.84 0.73 9.11 0.73 8.36 0.72 C4.23 0.63 4.23 0.63 1 3 Z " fill="#93989C" transform="translate(0,0)"/>
<path d="M0 0 C4.29 0 8.58 0 13 0 C13 1.98 13 3.96 13 6 C9.04 6 5.08 6 1 6 C1 7.98 1 9.96 1 12 C5.29 12 9.58 12 14 12 C14 12.66 14 13.32 14 14 C8.06 14 2.12 14 -4 14 C-4.66 12.68 -5.32 11.36 -6 10 C-5.34 9.67 -4.68 9.34 -4 9 C-2.87 6.89 -2.87 6.89 -1.88 4.44 C-0.95 2.24 -0.95 2.24 0 0 Z " fill="#2E7AC5" transform="translate(7,25)"/>
<path d="M0 0 C5.61 0.23 8.34 1.62 12.52 5.33 C15.43 8.61 16 10.56 16 15 C14.68 15 13.36 15 12 15 C11.57 13.91 11.13 12.81 10.69 11.69 C9.47 8.89 8.55 6.79 6 5 C2.9 3.8 2.9 3.8 0 3 C0 2.01 0 1.02 0 0 Z " fill="#1B86E6" transform="translate(18,7)"/>
<path d="M0 0 C1.79 -0.05 3.58 -0.09 5.38 -0.12 C6.37 -0.15 7.37 -0.17 8.4 -0.2 C11 0 11 0 13 2 C13.2 4.6 13.2 4.6 13.12 7.62 C13.11 8.63 13.09 9.63 13.07 10.66 C13.04 11.82 13.04 11.82 13 13 C12.46 12.28 11.93 11.56 11.38 10.81 C8.78 7.74 6.12 5.52 3 3 C1.99 2.01 0.99 1.01 0 0 Z " fill="#0E1116" transform="translate(26,1)"/>
<path d="M0 0 C1.89 0.03 1.89 0.03 3.81 0.06 C3.81 1.71 3.81 3.36 3.81 5.06 C-0.48 5.06 -4.77 5.06 -9.19 5.06 C-8.53 4.73 -7.87 4.4 -7.19 4.06 C-7.19 3.07 -7.19 2.08 -7.19 1.06 C-4.44 0.15 -2.83 -0.05 0 0 Z " fill="#3B98EF" transform="translate(17.1875,13.9375)"/>
<path d="M0 0 C11.55 0 23.1 0 35 0 C35 0.33 35 0.66 35 1 C26.67 2.09 18.39 2.07 10 1.96 C9.11 1.95 8.22 1.95 7.3 1.94 C6.5 1.93 5.7 1.91 4.87 1.9 C2.98 1.79 2.98 1.79 2 3 C1.77 4.85 1.59 6.7 1.44 8.56 C1.35 9.57 1.27 10.59 1.18 11.63 C1.12 12.41 1.06 13.19 1 14 C0.67 14 0.34 14 0 14 C0 9.38 0 4.76 0 0 Z " fill="#737880" transform="translate(0,0)"/>
<path d="M0 0 C0.33 0 0.66 0 1 0 C1.03 0.69 1.05 1.38 1.08 2.1 C1.19 5.21 1.31 8.32 1.44 11.44 C1.48 12.53 1.52 13.61 1.56 14.74 C1.6 15.77 1.64 16.81 1.68 17.87 C1.74 19.31 1.74 19.31 1.79 20.78 C1.76 22.97 1.76 22.97 3 24 C4.34 24.16 5.69 24.25 7.04 24.32 C7.84 24.36 8.65 24.4 9.49 24.44 C10.34 24.48 11.19 24.52 12.06 24.56 C12.92 24.61 13.77 24.65 14.65 24.69 C16.77 24.8 18.88 24.9 21 25 C21 25.33 21 25.66 21 26 C14.07 26 7.14 26 0 26 C0 17.42 0 8.84 0 0 Z " fill="#8FB0D8" transform="translate(0,14)"/>
<path d="M0 0 C2.97 0 5.94 0 9 0 C9 1.65 9 3.3 9 5 C5.7 5 2.4 5 -1 5 C-0.67 3.35 -0.34 1.7 0 0 Z " fill="#4DB0F7" transform="translate(11,25)"/>
<path d="M0 0 C1.89 0.03 1.89 0.03 3.81 0.06 C3.81 0.39 3.81 0.72 3.81 1.06 C1.5 1.06 -0.81 1.06 -3.19 1.06 C-3.19 2.05 -3.19 3.04 -3.19 4.06 C-5.17 4.39 -7.15 4.72 -9.19 5.06 C-8.53 4.73 -7.87 4.4 -7.19 4.06 C-7.19 3.07 -7.19 2.08 -7.19 1.06 C-4.44 0.15 -2.83 -0.05 0 0 Z " fill="#277CDD" transform="translate(17.1875,13.9375)"/>
<path d="M0 0 C1.32 0 2.64 0 4 0 C4 1.32 4 2.64 4 4 C2.35 4.33 0.7 4.66 -1 5 C-0.67 3.35 -0.34 1.7 0 0 Z " fill="#3C98EF" transform="translate(11,25)"/>
<path d="M0 0 C0.33 0 0.66 0 1 0 C1 2.64 1 5.28 1 8 C0.01 8 -0.98 8 -2 8 C-1.48 5.24 -0.89 2.67 0 0 Z " fill="#0A84D3" transform="translate(38,14)"/>
</svg>
